<svg id="Layer_1" data-name="Layer 1" xmlns="http://www.w3.org/2000/svg" viewBox="0 0 737.45 312.51"><defs><style>.cls-1{fill:#1a3865;}.cls-2{fill:#7a837a;}.cls-3{fill:#fff;}</style></defs><path class="cls-1" d="M309.66,457.59l-13.12,51.86a55.12,55.12,0,0,0,7.5.68,49,49,0,0,0,10.61-1.46l-1,4.78a53.44,53.44,0,0,1-10.15,1.37q-3.79,0-11.22-.69-6.53-.68-10.83-.68a85.39,85.39,0,0,0-18,2.25l1.46-5.47q10.74-2.73,14-5.37,4.88-4.2,7.51-14.75L300,435.52c1.69-7,2.53-11.07,2.53-12.3a3,3,0,0,0-1.22-2.64c-.81-.59-2.42-.85-4.82-.78l1.26-4.69q9.84-.09,23.55-3.6-1.17,3.71-3,10.93L311,451.24a39.25,39.25,0,0,0,7.91,1,28.8,28.8,0,0,0,20.92-8.54,27.47,27.47,0,0,0,8.7-20.27,18.67,18.67,0,0,0-7-14.94q-7-5.87-19-5.86A65.62,65.62,0,0,0,292.6,410q-14.62,7.43-22,18.41a40.94,40.94,0,0,0-7.31,23q0,9.07,7.52,15.62a25.36,25.36,0,0,1,4.69,4.69,6,6,0,0,1,.88,3.13,4.85,4.85,0,0,1-1.53,3.56,5,5,0,0,1-3.68,1.52q-5.3,0-9.42-6.16-5.3-8-5.3-19.72a51.12,51.12,0,0,1,8.3-28q8.31-13,25.15-21.49a77.84,77.84,0,0,1,35.5-8.49q17.39,0,28.61,6.54T365.29,422q0,12-10.29,22.36t-28.33,13.28q4.49,9,5.75,12.11,2.06,5.28,6.24,17.77,9.85,29.29,20.4,41.25,7.81,8.76,16.89,8.75,9.38,0,12-8.44,1.56-5.34,2.92-6.61a6,6,0,0,1,4.2-1.74,5.27,5.27,0,0,1,3.95,1.66,5.5,5.5,0,0,1,1.61,4q0,6.06-6.63,11.53t-17.09,5.46a38.08,38.08,0,0,1-18.11-4.58q-8.64-4.57-16.79-15a106.75,106.75,0,0,1-14.2-25q-3-7.33-8.87-26.86-3.51-11.91-4.39-14.26l-2.4-.19A22.5,22.5,0,0,0,309.66,457.59Z" transform="translate(-158.41 -309.09)"/><path class="cls-1" d="M425.74,488.94l3.23,4.3Q405,516,388,516q-6.93,0-10.6-4.69t-3.66-15q0-20.89,12.7-41.6,14.25-23.54,34.08-23.53,6.93,0,10.59,3.46t3.67,9.53a21.36,21.36,0,0,1-4.4,12.5q-4.4,6.15-15.72,12.79-5.67,3.22-24.22,11.62a60.77,60.77,0,0,0-.88,10.06q0,6.93,2.2,9.67a7.73,7.73,0,0,0,6.4,2.73,20.86,20.86,0,0,0,8.78-2.25Q413.34,498.23,425.74,488.94Zm-34.18-14.16q15.72-7,23.64-15.14,5.37-5.65,5.37-11.23a9.77,9.77,0,0,0-2.2-6.69,7.27,7.27,0,0,0-5.71-2.49,11.16,11.16,0,0,0-7,2.74q-4.61,3.61-7.72,10.93A99.17,99.17,0,0,0,391.56,474.78Z" transform="translate(-158.41 -309.09)"/><path class="cls-1" d="M569.15,489.92l3.32,3.51a96.49,96.49,0,0,1-18,15.68q-10.41,7.08-17.14,7.08a6.25,6.25,0,0,1-5-2.3,9.37,9.37,0,0,1-2-6.3q0-7.81,6-32.42L547,432.3q5.76-23.24,9.66-31.15A45.57,45.57,0,0,1,597.09,376a9.89,9.89,0,0,1,6.59,2,6.15,6.15,0,0,1,2.39,4.86,6.51,6.51,0,0,1-2.34,5.17q-2.34,2-6.81,2a49.51,49.51,0,0,1-8.27-1,52.86,52.86,0,0,0-8.66-.78q-4,0-6,1.65-2.82,2.32-5.1,9.82t-7.45,29.54l-9.74,40.92q-7.23,30.76-7.23,32.13,0,3.12,2.25,3.12c1.43,0,3.52-.84,6.25-2.54A97.59,97.59,0,0,0,569.15,489.92Z" transform="translate(-158.41 -309.09)"/><path class="cls-1" d="M648.29,429.66l6.44-1.37L647.41,453q-4.39,14.75-8.3,34c-1.43,7-2.15,11.46-2.15,13.47s.81,3,2.44,3q1.56,0,5-2.05a63.93,63.93,0,0,0,11.62-9l3.13,3.8Q648,506.43,644.87,508.57A53.93,53.93,0,0,1,633,514.92a20.92,20.92,0,0,1-7.23,1.36,5.46,5.46,0,0,1-3.81-1.17,4.41,4.41,0,0,1-1.27-3.42,14.6,14.6,0,0,1,.78-4l3.91-13.28a82.74,82.74,0,0,1-20,17.28q-7.12,4.5-13.09,4.5a10.25,10.25,0,0,1-8.69-4q-4.1-5.37-4.1-14.06,0-10.35,5.52-23.05a85.35,85.35,0,0,1,14.79-23q9.29-10.35,19.53-15.24,7.92-3.71,20.32-3.71a52.62,52.62,0,0,1,6.34.39ZM636.18,444.6a46.35,46.35,0,0,0-8.89-1.07A25.1,25.1,0,0,0,612,448.36q-6.54,4.84-12.16,17.39a60.9,60.9,0,0,0-5.61,25c0,4.43.74,7.62,2.24,9.58a7,7,0,0,0,5.86,2.92q6.74,0,14.46-7.27t11.32-20.95Z" transform="translate(-158.41 -309.09)"/><path class="cls-1" d="M689.8,416.28l15.51-5.94-7,27.33h20.23L717,444.6H696.72l-8.52,32.73q-4.07,14.75-4.06,20.5a5.36,5.36,0,0,0,1.12,3.8,4,4,0,0,0,3.08,1.18q3,0,9.28-3.62a121.31,121.31,0,0,0,15.62-10.84l3.71,4.5Q695.58,509,688.34,512.57t-11.62,3.62a6.89,6.89,0,0,1-5.71-2.64q-2.1-2.64-2.1-8.59,0-7,3.71-21.49l9.94-38.87H666.74l1.76-6.93h15.83Z" transform="translate(-158.41 -309.09)"/><path class="cls-1" d="M729.36,454.27,726,450.85q12.53-12,19.94-15.89T758.68,431a5.22,5.22,0,0,1,3.22.88,2.51,2.51,0,0,1,1.18,2,18.08,18.08,0,0,1-.49,3.12l-4.4,19.66a120.39,120.39,0,0,1,24.95-20.63q8-5,13.17-5a7.49,7.49,0,0,1,5.94,2.44q2.14,2.44,2.15,7a30.53,30.53,0,0,1-.88,6.84q-1.56,6.35-8.17,27.63-6.23,19.92-6.23,26.47a6.09,6.09,0,0,0,.59,3,1.82,1.82,0,0,0,1.66,1c1.88,0,4.85-1.82,8.88-5.47q4.31-3.9,8.6-7.22l2.44,3.51a89,89,0,0,1-18.65,15.94q-6.17,3.88-10.16,3.89a6.84,6.84,0,0,1-5.76-2.69q-2.06-2.69-2.05-8.74,0-8.68,10.84-43.26,3.32-12.31,3.32-14.36,0-3-3.62-3-3.9,0-10.05,4.1a61,61,0,0,0-15.34,14.28q-3.9,5.28-6.54,16.82l-7.91,34.13H730.82q4.09-14.67,7.13-28.07l8.69-37.16a17.12,17.12,0,0,0,.49-3.22q0-2.64-2-2.64c-1,0-2.54.69-4.5,2.06A61.53,61.53,0,0,0,729.36,454.27Z" transform="translate(-158.41 -309.09)"/><path class="cls-1" d="M885,429.66l6.44-1.37L884.14,453q-4.39,14.75-8.3,34c-1.43,7-2.15,11.46-2.15,13.47s.81,3,2.44,3q1.56,0,5-2.05a63.93,63.93,0,0,0,11.62-9l3.13,3.8q-11.13,10.17-14.26,12.31a53.93,53.93,0,0,1-11.91,6.35,20.92,20.92,0,0,1-7.23,1.36,5.46,5.46,0,0,1-3.81-1.17,4.44,4.44,0,0,1-1.27-3.42,14.6,14.6,0,0,1,.78-4l3.91-13.28a82.74,82.74,0,0,1-20,17.28q-7.12,4.5-13.09,4.5a10.25,10.25,0,0,1-8.69-4q-4.1-5.37-4.1-14.06,0-10.35,5.52-23.05a85.35,85.35,0,0,1,14.79-23q9.28-10.35,19.54-15.24,7.9-3.71,20.31-3.71a52.9,52.9,0,0,1,6.35.39ZM872.91,444.6a46.35,46.35,0,0,0-8.89-1.07,25.1,25.1,0,0,0-15.33,4.83q-6.54,4.84-12.16,17.39a60.9,60.9,0,0,0-5.61,25q0,6.65,2.24,9.58a7,7,0,0,0,5.86,2.92q6.75,0,14.46-7.27t11.32-20.95Z" transform="translate(-158.41 -309.09)"/><path class="cls-2" d="M424.61,365.55s-6.06,3.77-10.87.52l-4.82-3.26L392,372.31l-1.2-3.43,12.12-12.74-13.23-11.56-8.57,6L380,348.51l3.11-4.6L391,332.3l1.19-1.76,2.32.26L392.1,341l15.67,8,7.29-16,3.63-.17L416.2,352l4.83,3.26C425.84,358.53,424.61,365.55,424.61,365.55Z" transform="translate(-158.41 -309.09)"/><path class="cls-2" d="M456.52,512h0l.1-.46A4,4,0,0,1,456.52,512Z" transform="translate(-158.41 -309.09)"/><path class="cls-2" d="M522.58,494.91a86.36,86.36,0,0,1-18.46,15.82q-6.44,4-10.64,4A6.63,6.63,0,0,1,488,512q-2.1-2.73-2.1-8.5a59.09,59.09,0,0,1,1.61-11.37q1.62-7.47,9.13-32.08,3.33-12.12,3.32-14.16,0-3.13-3.33-3.13-4.11,0-10.28,4.09A61.44,61.44,0,0,0,471,461.27q-4.21,5.61-6.76,16.62L456.79,511l-.13.55a4,4,0,0,1-.14.46,157.41,157.41,0,0,1-54,78.26,148.83,148.83,0,0,1-91.63,31.34c-84.1,0-152.52-70.1-152.52-156.26s68.42-156.25,152.52-156.25a149.41,149.41,0,0,1,80,23.21l-7.84,11.61a135.46,135.46,0,0,0-72.18-20.82c-76.38,0-138.52,63.81-138.52,142.25S234.55,607.6,310.93,607.6c60.93,0,113.88-39.91,132.13-99.43q3.93-14.49,6.18-24.07l14.35-62.63q3.92-17.36,10.31-26.72a47,47,0,0,1,16.7-14.95A42.37,42.37,0,0,1,511,374.21a9.89,9.89,0,0,1,6.64,2.08,6.58,6.58,0,0,1,2.44,5.25,6,6,0,0,1-2.4,4.7,9.73,9.73,0,0,1-6.5,2,45.09,45.09,0,0,1-6.06-.52,94.56,94.56,0,0,0-11.64-1.24,8.88,8.88,0,0,0-7.33,3.63q-2.83,3.63-5.87,17.07l-10.89,48.21a125.68,125.68,0,0,1,25.32-20.58q8-5,12.91-5a7.88,7.88,0,0,1,6,2.24,8.65,8.65,0,0,1,2.15,6.26,29,29,0,0,1-.78,6.64q-1.27,5.76-6,20.9-6.36,20.89-7.49,26a42.6,42.6,0,0,0-1.13,9.08,4.14,4.14,0,0,0,.54,2.35,1.83,1.83,0,0,0,1.61.78q2.34,0,8.79-5.57,3.62-3,8.79-7.22Z" transform="translate(-158.41 -309.09)"/><path class="cls-2" d="M383.11,343.91l.46.29,3-4.79,4.47-7-.12-.07" transform="translate(-158.41 -309.09)"/><path class="cls-2" d="M456.79,511h0c-.05.18-.11.36-.17.54" transform="translate(-158.41 -309.09)"/><path class="cls-3" d="M382.52,342.47A105.68,105.68,0,0,0,346,324.21a126.42,126.42,0,0,0-41.68-4,177.38,177.38,0,0,0-42.07,8.08,229.86,229.86,0,0,0-39.93,17A232.64,232.64,0,0,1,261,324.72a182.44,182.44,0,0,1,42.56-12,135.72,135.72,0,0,1,45,.52,118.85,118.85,0,0,1,42.63,17Z" transform="translate(-158.41 -309.09)"/></svg>