<svg width="738" height="313" viewBox="0 0 738 313" fill="none" xmlns="http://www.w3.org/2000/svg">
<g clip-path="url(#clip0_575_11886)">
<path d="M151.25 148.501L138.13 200.361C140.612 200.758 143.118 200.985 145.63 201.041C149.209 200.943 152.767 200.453 156.24 199.581L155.24 204.361C151.908 205.141 148.509 205.6 145.09 205.731C142.563 205.731 138.823 205.501 133.87 205.041C129.517 204.587 125.907 204.361 123.04 204.361C116.977 204.469 110.943 205.224 105.04 206.611L106.5 201.141C113.66 199.321 118.327 197.531 120.5 195.771C123.753 192.971 126.257 188.054 128.01 181.021L141.59 126.431C143.28 119.431 144.12 115.361 144.12 114.131C144.157 113.623 144.065 113.115 143.851 112.653C143.638 112.191 143.311 111.791 142.9 111.491C142.09 110.901 140.48 110.641 138.08 110.711L139.34 106.021C145.9 105.961 153.75 104.761 162.89 102.421C162.11 104.894 161.11 108.537 159.89 113.351L152.59 142.151C155.186 142.752 157.836 143.087 160.5 143.151C164.383 143.211 168.238 142.486 171.833 141.018C175.428 139.55 178.689 137.371 181.42 134.611C184.192 132.017 186.397 128.876 187.894 125.387C189.391 121.898 190.149 118.137 190.12 114.341C190.176 111.48 189.574 108.646 188.36 106.055C187.146 103.465 185.353 101.188 183.12 99.4006C178.453 95.4873 172.12 93.5339 164.12 93.5406C153.7 93.586 143.44 96.1124 134.19 100.911C124.443 105.864 117.11 112.001 112.19 119.321C107.498 126.079 104.95 134.094 104.88 142.321C104.88 148.367 107.387 153.574 112.4 157.941C114.162 159.292 115.739 160.869 117.09 162.631C117.666 163.573 117.97 164.656 117.97 165.761C117.973 166.427 117.839 167.088 117.576 167.7C117.313 168.313 116.926 168.864 116.44 169.321C115.964 169.813 115.391 170.201 114.758 170.463C114.125 170.724 113.445 170.853 112.76 170.841C109.227 170.841 106.087 168.787 103.34 164.681C99.8068 159.347 98.0401 152.774 98.0401 144.961C98.0252 135.019 100.91 125.288 106.34 116.961C111.88 108.294 120.263 101.131 131.49 95.4706C142.483 89.8669 154.651 86.9569 166.99 86.9806C178.583 86.9806 188.12 89.1606 195.6 93.5206C203.08 97.8806 206.84 104.344 206.88 112.911C206.88 120.911 203.45 128.364 196.59 135.271C189.73 142.177 180.287 146.604 168.26 148.551C171.253 154.551 173.17 158.587 174.01 160.661C175.383 164.181 177.463 170.104 180.25 178.431C186.817 197.957 193.617 211.707 200.65 219.681C205.857 225.521 211.487 228.437 217.54 228.431C223.793 228.431 227.793 225.617 229.54 219.991C230.58 216.431 231.553 214.227 232.46 213.381C233.578 212.272 235.086 211.647 236.66 211.641C237.398 211.625 238.131 211.765 238.811 212.051C239.492 212.337 240.105 212.763 240.61 213.301C241.134 213.825 241.547 214.449 241.823 215.136C242.1 215.824 242.235 216.56 242.22 217.301C242.22 221.341 240.01 225.184 235.59 228.831C231.17 232.477 225.473 234.297 218.5 234.291C212.177 234.291 205.953 232.717 200.39 229.711C194.63 226.664 189.033 221.664 183.6 214.711C177.761 207.056 172.984 198.646 169.4 189.711C167.4 184.824 164.443 175.871 160.53 162.851C158.19 154.911 156.727 150.157 156.14 148.591L153.74 148.401C152.909 148.388 152.078 148.421 151.25 148.501Z" fill="#1A3865"/>
<path d="M267.33 179.85L270.56 184.15C254.58 199.323 240.923 206.91 229.59 206.91C224.97 206.91 221.437 205.347 218.99 202.22C216.543 199.093 215.323 194.093 215.33 187.22C215.33 173.293 219.563 159.427 228.03 145.62C237.53 129.927 248.89 122.083 262.11 122.09C266.73 122.09 270.26 123.243 272.7 125.55C275.14 127.857 276.363 131.033 276.37 135.08C276.266 139.608 274.725 143.985 271.97 147.58C269.037 151.68 263.797 155.943 256.25 160.37C252.47 162.517 244.397 166.39 232.03 171.99C231.458 175.313 231.164 178.678 231.15 182.05C231.15 186.67 231.883 189.893 233.35 191.72C234.129 192.643 235.114 193.372 236.226 193.846C237.337 194.32 238.544 194.527 239.75 194.45C242.806 194.352 245.804 193.584 248.53 192.2C252.797 190.16 259.063 186.043 267.33 179.85ZM233.15 165.69C243.63 161.023 251.51 155.977 256.79 150.55C260.37 146.783 262.16 143.04 262.16 139.32C262.284 136.894 261.5 134.509 259.96 132.63C259.252 131.818 258.373 131.173 257.385 130.742C256.398 130.312 255.327 130.106 254.25 130.14C251.67 130.216 249.196 131.185 247.25 132.88C244.177 135.287 241.603 138.93 239.53 143.81C236.57 150.834 234.429 158.176 233.15 165.69Z" fill="#1A3865"/>
<path d="M410.74 180.831L414.06 184.341C408.732 190.293 402.686 195.559 396.06 200.021C389.12 204.741 383.407 207.101 378.92 207.101C377.966 207.125 377.02 206.93 376.153 206.531C375.286 206.132 374.523 205.541 373.92 204.801C372.51 203.014 371.799 200.774 371.92 198.501C371.92 193.294 373.92 182.488 377.92 166.081L388.59 123.211C392.43 107.718 395.65 97.3343 398.25 92.061C402.015 84.5489 407.784 78.2241 414.919 73.7856C422.054 69.3472 430.277 66.968 438.68 66.911C441.045 66.7666 443.384 67.4763 445.27 68.911C446.013 69.4849 446.614 70.2213 447.029 71.0637C447.443 71.9061 447.659 72.8322 447.66 73.7709C447.685 74.7534 447.488 75.729 447.083 76.6244C446.678 77.5198 446.075 78.3117 445.32 78.941C443.76 80.2743 441.49 80.941 438.51 80.941C435.73 80.8405 432.964 80.506 430.24 79.941C427.38 79.4436 424.483 79.1827 421.58 79.161C418.913 79.161 416.913 79.711 415.58 80.811C413.7 82.3576 412 85.631 410.48 90.631C408.96 95.631 406.477 105.478 403.03 120.171L393.29 161.091C388.47 181.598 386.06 192.308 386.06 193.221C386.06 195.301 386.81 196.341 388.31 196.341C389.74 196.341 391.83 195.501 394.56 193.801C400.399 190.065 405.823 185.717 410.74 180.831Z" fill="#1A3865"/>
<path d="M489.88 120.569L496.32 119.199L489 143.909C486.073 153.743 483.306 165.076 480.7 177.909C479.27 184.909 478.55 189.369 478.55 191.379C478.55 193.389 479.36 194.379 480.99 194.379C482.03 194.379 483.697 193.696 485.99 192.329C490.196 189.786 494.095 186.766 497.61 183.329L500.74 187.129C493.307 193.936 488.547 198.053 486.46 199.479C482.784 202.083 478.796 204.217 474.59 205.829C472.279 206.706 469.831 207.167 467.36 207.189C465.988 207.293 464.627 206.875 463.55 206.019C463.106 205.573 462.764 205.037 462.545 204.447C462.326 203.857 462.235 203.227 462.28 202.599C462.352 201.236 462.614 199.89 463.06 198.599L466.97 185.319C461.272 192.114 454.519 197.948 446.97 202.599C442.223 205.599 437.86 207.099 433.88 207.099C432.215 207.189 430.554 206.872 429.04 206.175C427.525 205.478 426.204 204.422 425.19 203.099C422.456 199.519 421.09 194.833 421.09 189.039C421.09 182.139 422.93 174.456 426.61 165.989C430.272 157.577 435.266 149.811 441.4 142.989C447.593 136.089 454.103 131.009 460.93 127.749C466.21 125.276 472.983 124.039 481.25 124.039C483.369 124.041 485.486 124.172 487.59 124.429L489.88 120.569ZM477.77 135.509C474.848 134.866 471.871 134.508 468.88 134.439C463.392 134.334 458.021 136.031 453.59 139.269C449.23 142.496 445.177 148.293 441.43 156.659C437.808 164.5 435.896 173.022 435.82 181.659C435.82 186.089 436.56 189.279 438.06 191.239C438.725 192.167 439.606 192.918 440.627 193.427C441.649 193.935 442.779 194.187 443.92 194.159C448.413 194.159 453.233 191.736 458.38 186.889C463.526 182.043 467.3 175.059 469.7 165.939L477.77 135.509Z" fill="#1A3865"/>
<path d="M531.39 107.19L546.9 101.25L539.9 128.58H560.13L558.59 135.51H538.31L529.79 168.24C527.077 178.073 525.723 184.907 525.73 188.74C525.604 190.103 526.005 191.463 526.85 192.54C527.25 192.944 527.732 193.259 528.263 193.462C528.794 193.666 529.362 193.754 529.93 193.72C531.93 193.72 535.023 192.513 539.21 190.1C544.692 186.901 549.915 183.276 554.83 179.26L558.54 183.76C544.293 194.527 534.757 201.1 529.93 203.48C525.103 205.86 521.23 207.067 518.31 207.1C517.217 207.145 516.129 206.929 515.136 206.47C514.143 206.011 513.274 205.322 512.6 204.46C511.2 202.7 510.5 199.837 510.5 195.87C510.5 191.203 511.737 184.04 514.21 174.38L524.15 135.51H508.33L510.09 128.58H525.92L531.39 107.19Z" fill="#1A3865"/>
<path d="M570.95 145.179L567.59 141.759C575.943 133.759 582.59 128.463 587.53 125.869C592.47 123.276 596.717 121.956 600.27 121.909C601.411 121.842 602.542 122.152 603.49 122.789C603.833 123.003 604.12 123.296 604.325 123.645C604.53 123.993 604.649 124.386 604.67 124.789C604.598 125.842 604.434 126.886 604.18 127.909L599.78 147.569C607.13 139.601 615.522 132.661 624.73 126.939C630.063 123.606 634.453 121.939 637.9 121.939C639.009 121.88 640.117 122.068 641.145 122.49C642.172 122.913 643.093 123.558 643.84 124.379C645.267 126.006 645.983 128.339 645.99 131.379C645.956 133.685 645.661 135.98 645.11 138.219C644.07 142.453 641.346 151.663 636.94 165.849C632.786 179.129 630.71 187.953 630.71 192.319C630.648 193.353 630.851 194.386 631.3 195.319C631.454 195.626 631.692 195.882 631.986 196.059C632.279 196.236 632.617 196.326 632.96 196.319C634.84 196.319 637.81 194.499 641.84 190.849C644.713 188.249 647.58 185.843 650.44 183.629L652.88 187.139C647.429 193.288 641.153 198.652 634.23 203.079C630.117 205.666 626.73 206.963 624.07 206.969C622.964 207.021 621.862 206.803 620.858 206.334C619.855 205.866 618.98 205.161 618.31 204.279C616.936 202.486 616.253 199.573 616.26 195.539C616.26 189.753 619.873 175.333 627.1 152.279C629.313 144.073 630.42 139.286 630.42 137.919C630.42 135.919 629.213 134.919 626.8 134.919C624.2 134.919 620.85 136.286 616.75 139.019C610.851 142.859 605.661 147.69 601.41 153.299C598.81 156.819 596.63 162.426 594.87 170.119L586.96 204.249H572.41C575.137 194.469 577.513 185.113 579.54 176.179L588.23 139.019C588.495 137.964 588.659 136.886 588.72 135.799C588.72 134.039 588.053 133.159 586.72 133.159C585.72 133.159 584.18 133.849 582.22 135.219C578.07 138.066 574.285 141.411 570.95 145.179Z" fill="#1A3865"/>
<path d="M726.59 120.569L733.03 119.199L725.73 143.909C722.803 153.743 720.036 165.076 717.43 177.909C716 184.909 715.28 189.369 715.28 191.379C715.28 193.389 716.09 194.379 717.72 194.379C718.76 194.379 720.426 193.696 722.72 192.329C726.926 189.786 730.825 186.766 734.34 183.329L737.47 187.129C730.05 193.909 725.296 198.013 723.21 199.439C719.521 202.046 715.52 204.18 711.3 205.789C708.989 206.666 706.541 207.127 704.07 207.149C702.698 207.253 701.337 206.835 700.26 205.979C699.818 205.532 699.476 204.995 699.257 204.406C699.038 203.816 698.947 203.187 698.99 202.559C699.062 201.196 699.324 199.85 699.77 198.559L703.68 185.279C697.982 192.074 691.229 197.908 683.68 202.559C678.933 205.559 674.57 207.059 670.59 207.059C668.925 207.149 667.264 206.832 665.75 206.135C664.235 205.438 662.914 204.382 661.9 203.059C659.166 199.479 657.8 194.793 657.8 188.999C657.8 182.099 659.64 174.416 663.32 165.949C666.982 157.537 671.976 149.771 678.11 142.949C684.296 136.049 690.81 130.969 697.65 127.709C702.916 125.236 709.686 123.999 717.96 123.999C720.082 124.002 722.203 124.132 724.31 124.389L726.59 120.569ZM714.5 135.509C711.578 134.866 708.601 134.508 705.61 134.439C700.109 134.325 694.722 136.022 690.28 139.269C685.92 142.496 681.866 148.293 678.12 156.659C674.498 164.5 672.586 173.022 672.51 181.659C672.51 186.093 673.256 189.286 674.75 191.239C675.415 192.167 676.296 192.918 677.317 193.427C678.339 193.935 679.469 194.187 680.61 194.159C685.11 194.159 689.93 191.736 695.07 186.889C700.21 182.043 703.983 175.059 706.39 165.939L714.5 135.509Z" fill="#1A3865"/>
<path d="M266.2 56.4592C266.2 56.4592 260.14 60.2292 255.33 56.9792L250.51 53.7192L233.59 63.2192L232.39 59.7892L244.51 47.0492L231.28 35.4892L222.71 41.4892L221.59 39.4192L224.7 34.8192L232.59 23.2092L233.78 21.4492L236.1 21.7092L233.69 31.9092L249.36 39.9092L256.65 23.9092L260.28 23.7392L257.79 42.9092L262.62 46.1692C267.43 49.4392 266.2 56.4592 266.2 56.4592Z" fill="#7A837A"/>
<path d="M298.11 202.909L298.21 202.449C298.186 202.604 298.152 202.758 298.11 202.909Z" fill="#7A837A"/>
<path d="M364.17 185.82C358.793 191.937 352.578 197.263 345.71 201.64C341.417 204.306 337.87 205.64 335.07 205.64C334.004 205.659 332.95 205.42 331.996 204.945C331.042 204.47 330.217 203.772 329.59 202.91C328.19 201.09 327.49 198.256 327.49 194.41C327.656 190.576 328.195 186.769 329.1 183.04C330.18 178.06 333.223 167.366 338.23 150.96C340.45 142.88 341.557 138.16 341.55 136.8C341.55 134.713 340.44 133.67 338.22 133.67C335.48 133.67 332.053 135.033 327.94 137.76C322.031 141.647 316.839 146.525 312.59 152.18C309.783 155.92 307.53 161.46 305.83 168.8L298.38 201.91L298.25 202.46C298.213 202.616 298.166 202.769 298.11 202.92C288.607 233.949 269.747 261.283 244.11 281.18C217.914 301.549 185.663 312.58 152.48 312.52C68.38 312.52 -0.0400391 242.42 -0.0400391 156.26C-0.0400391 70.0998 68.38 0.00976688 152.48 0.00976688C180.808 0.00610296 208.553 8.05564 232.48 23.2198L224.64 34.8298C203.024 21.2236 178.002 14.006 152.46 14.0098C76.08 14.0098 13.94 77.8198 13.94 156.26C13.94 234.7 76.14 298.51 152.52 298.51C213.45 298.51 266.4 258.6 284.65 199.08C287.27 189.42 289.33 181.396 290.83 175.01L305.18 112.38C307.793 100.806 311.23 91.8998 315.49 85.6598C319.77 79.4026 325.499 74.2734 332.19 70.7097C338.408 67.1517 345.427 65.2285 352.59 65.1198C354.982 64.9859 357.342 65.725 359.23 67.1998C360.01 67.8309 360.635 68.632 361.058 69.542C361.481 70.4519 361.69 71.4466 361.67 72.4498C361.655 73.3643 361.43 74.2632 361.014 75.0778C360.599 75.8924 360.002 76.6011 359.27 77.1497C357.414 78.5766 355.107 79.2866 352.77 79.1497C350.741 79.113 348.716 78.9393 346.71 78.6298C342.859 77.9764 338.972 77.5623 335.07 77.3898C333.647 77.363 332.238 77.6788 330.962 78.3105C329.686 78.9423 328.581 79.8715 327.74 81.0197C325.853 83.4397 323.897 89.1298 321.87 98.0898L310.98 146.3C318.49 138.369 327.002 131.45 336.3 125.72C341.633 122.386 345.937 120.72 349.21 120.72C350.311 120.652 351.414 120.817 352.448 121.203C353.481 121.589 354.422 122.187 355.21 122.96C356.728 124.679 357.502 126.931 357.36 129.22C357.357 131.456 357.095 133.684 356.58 135.86C355.733 139.7 353.733 146.666 350.58 156.76C346.34 170.686 343.843 179.353 343.09 182.76C342.388 185.737 342.01 188.781 341.96 191.84C341.903 192.659 342.091 193.477 342.5 194.19C342.679 194.447 342.921 194.653 343.203 194.79C343.485 194.926 343.797 194.988 344.11 194.97C345.67 194.97 348.6 193.113 352.9 189.4C355.313 187.4 358.243 184.993 361.69 182.18L364.17 185.82Z" fill="#9ad8ff"/>
<path d="M224.7 34.82L225.16 35.11L228.16 30.32L232.63 23.32L232.51 23.25" fill="#9ad8ff"/>
<path d="M298.38 201.91C298.33 202.09 298.27 202.27 298.21 202.45L298.38 201.91Z" fill="#9ad8ff"/>
<path d="M224.11 33.3792C213.24 24.9764 200.835 18.774 187.59 15.1192C174.016 11.4783 159.929 10.1265 145.91 11.1192C131.612 12.103 117.486 14.8162 103.84 19.1992C90.0238 23.5939 76.6542 29.2859 63.9102 36.1992C76.1277 28.1411 89.0785 21.2539 102.59 15.6292C116.238 9.91836 130.529 5.88877 145.15 3.62919C160.075 1.29709 175.284 1.47282 190.15 4.14918C205.33 6.99233 219.81 12.7666 232.78 21.1492L224.11 33.3792Z" fill="white"/>
</g>
<defs>
<clipPath id="clip0_575_11886">
<rect width="737.45" height="312.51" fill="white"/>
</clipPath>
</defs>
</svg>
